<svg width="84" height="81" viewBox="0 0 84 81" fill="none" xmlns="http://www.w3.org/2000/svg">
<rect width="84" height="81" fill="#1E1E1E"/>
<g id="Booking siden" clip-path="url(#clip0_0_1)">
<rect width="1920" height="1080" transform="translate(-1040 -769)" fill="#0D0D0D"/>
<path id="Vector" fill-rule="evenodd" clip-rule="evenodd" d="M-348.179 -387.481C-348.179 -534.524 -228.978 -653.726 -81.9339 -653.726C65.1099 -653.726 184.311 -534.524 184.311 -387.481V-50.9477C184.311 96.0961 65.1099 215.297 -81.9339 215.297C-228.978 215.297 -348.179 96.0961 -348.179 -50.9477V-387.481Z" fill="#4279F0"/>
<g id="button">
<path id="blue" fill-rule="evenodd" clip-rule="evenodd" d="M-231 40.5002C-231 18.1326 -212.786 0 -190.318 0H43.3178C65.7861 0 84 18.1326 84 40.5002C84 62.8677 65.7861 81 43.3178 81H-190.318C-212.786 81 -231 62.8677 -231 40.4998V40.5002Z" fill="#6DC202"/>
<path id="green" fill-rule="evenodd" clip-rule="evenodd" d="M0.0787964 0H43.2831C65.7705 0 84 18.1325 84 40.5C84 62.8677 65.7705 81 43.2831 81H0.0787964V0Z" fill="#6DC202"/>
<g id="*" opacity="0.7" filter="url(#filter0_d_0_1)">
<path fill-rule="evenodd" clip-rule="evenodd" d="M42.0394 14.1897C42.9577 14.1897 43.8648 14.2364 44.7586 14.3274L47.1447 14.6925L47.1525 22.7546C47.1525 22.9142 47.1082 23.0825 47.2087 23.2332C47.345 23.2185 47.3745 23.1003 47.4272 23.0176C48.8233 20.8518 50.216 18.686 51.6093 16.5202L51.8805 16.0979L52.3913 16.2852C53.9821 16.9599 55.4942 17.7853 56.9086 18.7437L60.5033 21.7175L56.0921 28.587C56.0359 28.6757 55.8883 28.7791 55.9944 28.8884C56.0682 28.9653 56.1926 28.8648 56.2874 28.8235C57.3196 28.3536 58.3518 27.8809 59.3832 27.4111L63.6834 25.4492L64.0923 25.9461C65.5257 28.074 66.6611 30.4205 67.4383 32.9254L67.9245 34.821L60.5721 38.1868C60.4632 38.2369 60.3177 38.2488 60.2679 38.3936C60.3564 38.4851 60.4688 38.4645 60.5721 38.4793L68.573 39.6363L68.6341 40.8548C68.6341 43.616 68.2154 46.2793 67.4383 48.7842L67.0637 49.8114L59.8182 48.7703C59.4725 48.7201 59.1289 48.6816 58.7712 48.6344C58.7832 48.8028 58.8984 48.8412 58.9722 48.9062L64.979 54.1251L64.0923 55.7635C63.136 57.1821 62.0476 58.5035 60.8447 59.7098L58.2218 61.8796L52.6857 57.0935C52.4693 56.9074 52.2831 56.6711 51.9311 56.5351C52.0407 56.9428 52.1292 57.2945 52.2297 57.6402L54.221 64.429L52.3913 65.4242C50.0052 66.4364 47.4405 67.1093 44.7586 67.3824L44.3799 67.4014L42.1813 59.927C42.1371 59.7764 42.1279 59.605 41.9923 59.4839C41.8588 59.5991 41.8504 59.7497 41.8117 59.8798L39.6005 67.3965L39.3202 67.3824C36.6382 67.1093 34.0736 66.4364 31.6875 65.4242L29.7651 64.3783L31.9376 56.9784C31.9762 56.8512 32.0472 56.7212 31.9847 56.5794C31.8252 56.5972 31.7423 56.7065 31.6446 56.7892C29.9618 58.24 28.2797 59.6877 26.5997 61.1413L25.8008 61.8332L23.2341 59.7098C22.0312 58.5035 20.9428 57.1821 19.9865 55.7635L19.0709 54.0716L24.9759 48.9505C25.0651 48.8737 25.1888 48.8146 25.2007 48.6433C25.1213 48.6492 25.0651 48.6462 25.0089 48.6551C22.7289 48.9801 20.446 49.3081 18.1659 49.633L17.0108 49.7984L16.6405 48.7842C15.8634 46.2793 15.4446 43.616 15.4446 40.8548L15.5072 39.6156L23.4322 38.4704C23.5242 38.4585 23.6514 38.4999 23.7013 38.3345C23.4765 38.2281 23.2579 38.1158 23.0331 38.0154L16.1424 34.8657L16.6405 32.9254C17.4176 30.4205 18.5531 28.074 19.9865 25.9461L20.3631 25.4883L27.6494 28.8146C27.7562 28.8648 27.8679 28.9564 28.0014 28.8855C28.0071 28.7496 27.9277 28.6698 27.8715 28.5842L23.5025 21.7777L27.1702 18.7437C28.5846 17.7853 30.0967 16.9599 31.6875 16.2852L32.114 16.1287L36.5715 23.053C36.6186 23.1239 36.6368 23.2391 36.764 23.2303C36.8378 23.1357 36.8139 23.0235 36.8139 22.9201C36.823 21.1118 36.8434 19.3036 36.8525 17.4983L36.8539 14.7047L39.3202 14.3274C40.2139 14.2364 41.1217 14.1897 42.0394 14.1897Z" fill="white"/>
</g>
</g>
</g>
<defs>
<filter id="filter0_d_0_1" x="11.4446" y="14.1897" width="61.1895" height="62.2117" filterUnits="userSpaceOnUse" color-interpolation-filters="sRGB">
<feFlood flood-opacity="0" result="BackgroundImageFix"/>
<feColorMatrix in="SourceAlpha" type="matrix" values="0 0 0 0 0 0 0 0 0 0 0 0 0 0 0 0 0 0 127 0" result="hardAlpha"/>
<feOffset dy="5"/>
<feGaussianBlur stdDeviation="2"/>
<feComposite in2="hardAlpha" operator="out"/>
<feColorMatrix type="matrix" values="0 0 0 0 0 0 0 0 0 0 0 0 0 0 0 0 0 0 0.25 0"/>
<feBlend mode="normal" in2="BackgroundImageFix" result="effect1_dropShadow_0_1"/>
<feBlend mode="normal" in="SourceGraphic" in2="effect1_dropShadow_0_1" result="shape"/>
</filter>
<clipPath id="clip0_0_1">
<rect width="1920" height="1080" fill="white" transform="translate(-1040 -769)"/>
</clipPath>
</defs>
</svg>
